<?xml version="1.0" encoding="utf-8"?>
<!-- Generator: Adobe Illustrator 21.1.0, SVG Export Plug-In . SVG Version: 6.00 Build 0)  -->
<svg version="1.1" id="Слой_1" xmlns="http://www.w3.org/2000/svg" xmlns:xlink="http://www.w3.org/1999/xlink" x="0px" y="0px"
	 viewBox="0 0 636 300" style="enable-background:new 0 0 636 300;" xml:space="preserve">
<style type="text/css">
	.st0{fill:#BB9167;}
	.st1{fill:#A07657;}
	.st2{fill:#939393;}
	.st3{fill:none;stroke:#939393;stroke-miterlimit:10;}
	.st4{fill:#CE9C5F;}
	.st5{fill:#BC874D;}
	.st6{fill:#737373;}
	.st7{fill:#2139B5;}
	.st8{fill:#002050;}
	.st9{fill:#001129;}
	.st10{fill:#282828;}
	.st11{fill:#004880;}
	.st12{fill:#0394F7;}
	.st13{fill:#DDB694;}
	.st14{fill:#080001;}
	.st15{fill:#A0722A;}
	.st16{fill:#E5AD70;}
	.st17{fill:#C8C8C8;}
	.st18{fill:#666666;}
	.st19{fill:#5C2D91;}
	.st20{fill:#F3F3F3;}
	.st21{fill:#871A1A;}
	.st22{fill:#BD895E;}
	.st23{fill:#FFFFFF;}
	.st24{fill:#F48290;}
	.st25{fill:#32145A;}
	.st26{fill:#F7082B;}
	.st27{fill:#F40B2C;}
	.st28{fill:none;}
	.st29{fill:#EDF2F4;}
</style>
<title>swimlane-feedback-survey</title>
<path class="st0" d="M473.3,197.2l-0.4-18.1l-13-2.2v20.8l0,0c0,0.2,0,0.4,0,0.6l9.3,57.8c0.6,2.1,7.6,1.1,8.2-0.5L473.3,197.2z"/>
<path class="st0" d="M494.4,197.1l-0.5-14.8H481v14.1l0,0c0,0.2-0.1,0.5-0.1,0.7l-3.5,58.4c0,1.6,7.6,2.7,7.6,0.5l9.3-57.8
	C494.4,197.9,494.4,197.5,494.4,197.1L494.4,197.1z"/>
<path class="st1" d="M459.9,197.7h13.4c0-0.2,0-0.3,0-0.5l-0.4-18.1l-13-2.2V197.7L459.9,197.7L459.9,197.7z"/>
<path class="st1" d="M494.4,197.7c0-0.2,0-0.4,0-0.6l0,0l-0.5-14.8H481v14.1c0,0.2-0.1,0.5-0.1,0.7v0.5L494.4,197.7z"/>
<polygon class="st2" points="467.3,81.2 490,81.2 480.4,135.6 "/>
<line class="st3" x1="215.9" y1="50.6" x2="428.5" y2="50.6"/>
<path class="st4" d="M183.1,74.1c1-6,1.6-13.6,1.6-13.6L170,59.3c-0.5,6-1.6,13.3-1.6,13.3c-0.2,2.9,1.4,6,7,6.5
	C180.6,79.6,182.8,76.7,183.1,74.1z"/>
<path class="st5" d="M183.7,69.9c0.6-4.9,1-9.5,1-9.5L170,59.3c-0.2,1.9-0.4,4-0.6,5.9C174.2,70.3,178.4,71.1,183.7,69.9z"/>
<path class="st4" d="M132.6,135.6c-0.5,7,0.5,9.2,3.4,14.7c2,3.1,3.6,3.6,3.6,1.7c0.7,3.6,4.6,4.8,4.1,2.2c0.5,1,1.9,2.2,3.1,1.4
	c1-0.7-0.2-2.4-0.7-3.1c1.2,0,2.4-1.2,1-3.6c-0.7-1.1-1.1-2.3-1.2-3.6c2.2,1.7,3.9,1.7,4.3,0.2c-1.9-1.9-3.6-5.8-5.8-8.7l-1.4-1.4
	l-1.7-15.7l-10.1,5.8L132.6,135.6z"/>
<path class="st4" d="M216.6,60.9c3.7-4,1.3-11.8,0.2-17.7c-0.9-3.5-3.8-4.7-3.4-3.1c-0.9-3.3-3.7-4.7-4-2c0-0.8-0.7-1.5-1.5-1.4
	c-0.2,0-0.4,0-0.5,0.1c-1.1,0.4-1.1,1.6-0.7,2.4c-1.1-0.5-2.8,0.2-1.9,2.8C205.5,44.2,216.6,60.9,216.6,60.9z"/>
<path class="st4" d="M232.3,86.3c-3.5-9.3-16.4-35.7-16.4-35.7l-6.8,2.5c0,0,5.6,19.4,8.3,28.4l-19.7-3.7L194.5,94
	c0,0,23,3.7,30.5,3.7C230.4,97.7,234.9,93.5,232.3,86.3z"/>
<path class="st4" d="M150,157.6c1.7-2,4.1,1.7,5.1,2.4c2.2,1.2,3.9,0.5,4.1-0.7c-2.2-1.4-4.6-4.8-7.2-7L150,157.6z"/>
<polygon class="st6" points="215.9,29.6 215.6,29.6 215.9,29.9 "/>
<path class="st7" d="M193.4,151.3c-0.2,6.3-5.5,11.3-11.8,11.1c-6.3,0-9.4-5.3-9.4-11.8c0.2-6.3,3.6-11.3,9.9-11.1
	C188.5,139.7,193.5,144.9,193.4,151.3z"/>
<polygon class="st8" points="190.3,200.3 171,199.8 172.2,150.5 193.4,151.3 "/>
<path class="st8" d="M150.5,174.9c0-1.7,8.4-4.8,19.1-4.8c10.4,0,18.8,3.2,18.8,4.8l3.9-34h-41.7v34H150.5z"/>
<path class="st8" d="M146.9,151c-0.5,6.3,4.2,11.8,10.5,12.3c0.1,0,0.2,0,0.3,0c6.3,0.2,13.5-4.6,14-10.9
	c0.5-6.3-6.3-11.8-12.8-12.1C152.7,140,147.3,144.7,146.9,151L146.9,151z"/>
<polygon class="st8" points="145.9,200.3 165,201.5 171.7,152.5 146.9,151 "/>
<polygon class="st9" points="160.2,262.1 148.1,261.3 148.8,247.8 159.9,248.5 "/>
<path class="st10" d="M160.6,268.6h-10.4l-0.5-1.4c-4.7,0.9-9.5,1.5-14.2,1.7c-2.9,0-7-0.2-8.9-1.2c-0.2,0-0.7-0.7-0.7-1.2
	c0.5-4.3,17.1-6,21.5-11.1h0.2c1.2,1.2,2.7,3.4,5.3,3.4c2.4,0,5.3-2.2,6.5-3.1C160.6,256.7,160.9,268.3,160.6,268.6z"/>
<path class="st8" d="M165,201.5c0.3-5.3-3.8-9.9-9.2-10.1c-5.2-0.2-9.6,3.8-9.9,9v0.1c-0.3,5.3,3.7,9.8,8.9,10.1
	c5.3,0.3,9.8-3.7,10.1-8.9C165,201.6,165,201.6,165,201.5L165,201.5z"/>
<polygon class="st8" points="165,201.5 145.9,200.5 144,257.9 161.4,260.1 "/>
<polygon class="st9" points="171.2,260.6 183.3,260.9 183.8,247.6 172.5,247.1 "/>
<path class="st10" d="M170.3,268.6l10.4,0.2l0.5-1.4c4.7,1,9.4,1.7,14.2,1.9c2.6,0,6.7,0,8.7-1c0.6-0.3,0.9-0.8,1-1.4
	c-0.2-4.1-17.1-6-21.2-11.1h-0.5c-1.2,1-2.4,3.1-5.3,3.1c-2.4,0-5.1-2.4-6.3-3.4C170.3,256.7,170,268.3,170.3,268.6z"/>
<path class="st8" d="M171,200c0.1-5.3,4.6-9.5,9.9-9.4c5.2,0.2,9.3,4.5,9.2,9.8v0.1c0,5-4,9.2-9.1,9.2c-0.2,0-0.4,0-0.6,0
	C175.2,209.6,171,205.3,171,200z"/>
<polygon class="st8" points="171,200 190.1,200.5 187.7,257.9 170,258.7 "/>
<polygon class="st9" points="146.6,159 168.4,160.9 171.2,148.6 170.5,160.9 192.5,163.1 192.5,164.5 170.8,163.8 169.1,160.9 
	167.9,163.8 146.6,165 "/>
<path class="st11" d="M174.4,129.3c0,0.5-0.7,1-1.2,1c-0.6-0.1-1-0.6-1-1.2c0.1-0.6,0.6-1,1.2-1l0,0
	C173.9,128.3,174.3,128.8,174.4,129.3z"/>
<path class="st11" d="M173.2,143.3c-0.2,0.7-0.7,1.2-1.2,1c-0.5,0-0.9-0.4-1-1c0-0.7,0.5-1,1.2-1
	C172.7,142.4,173.1,142.8,173.2,143.3z"/>
<path class="st12" d="M192.5,163.1l-46.9-3.7l4.9-61.2l-7,2.4l-8-16.2c0,0,16.8-9.2,20.8-11s10.4-2,10.4-2s4.4,6.3,9,6.3
	s9.1-5.8,9.1-5.8s9.1,1.1,12.9,2.8s15.5,5.4,15.5,5.4l-1,18.9l-13.5-1.5L192.5,163.1z"/>
<path class="st12" d="M183.6,71.6c-1.5,2.6-4.3,4.3-7.3,4.3c-3.3-0.1-6.3-1.9-7.8-4.9l-4.4,0.5c2,5.1,6.8,8.4,12.3,8.4
	c5,0,9.5-3,11.5-7.6L183.6,71.6z"/>
<polygon class="st12" points="209.1,99 211.4,79.5 215.7,81.1 213.7,99.4 "/>
<path class="st4" d="M132.4,134c-0.8-4.8-5.2-31.4-6-36.3s-0.1-8.4,4.4-10.7c4.3-2.3,7.5-3.7,7.5-3.7l6.1,15.3l-4.1,1.7l2.8,39.2
	C143.2,139.6,133.8,142.9,132.4,134z"/>
<polygon class="st12" points="139.4,82.3 147.1,99.4 142.8,101.1 135,84.4 "/>
<path class="st13" d="M168.6,51.5c0.2,0.2,0.3,0.2,0.3,0.3c-0.3-1.4-0.5-2.8-0.5-4.2v-0.8l-0.9,0.2v4.4
	C167.9,51.3,168.4,51.3,168.6,51.5z"/>
<path class="st13" d="M180.9,62.4c-2,0.1-3.9-0.6-5.4-1.8c1.2-2,3.2-3.9,5.4-3.9c2.4,0,4.4,1.9,5.6,3.9
	C184.9,61.9,182.9,62.5,180.9,62.4z"/>
<path class="st4" d="M169.1,43.2l-1-0.3c-0.7,0-1.7,0-1.8,0.8c-0.3,2.4-0.2,4.8,0.3,7.1c-0.2,1.2-0.3,2.9,1.3,3.2l1.4,0.2
	L169.1,43.2z"/>
<path class="st4" d="M192.9,43.4l1-0.2c0.8,0,1.8,0,1.8,0.8c0.3,2.4,0.2,4.8-0.3,7.1c0.2,1.2,0.3,2.9-1.5,3.2l-1.2,0.2L192.9,43.4z"
	/>
<path class="st4" d="M194.4,38v15.5c0,5.4-2.7,10.1-7.3,12.3c-1.9,0.9-3.9,1.3-5.9,1.3h-0.8c-1.7,0-3.5-0.3-5.1-1
	c-4.9-2.3-8-7.2-7.8-12.6V38l24-6.7l1.7,2.9L194.4,38z"/>
<path class="st14" d="M176.2,45.6c0,0.5-0.3,1-0.9,1c-0.5,0-0.9-0.3-1-0.8c-0.1-0.4,0.1-0.8,0.5-1c0.1,0,0.2,0,0.4,0
	C175.7,44.6,176.2,44.9,176.2,45.6z"/>
<path class="st14" d="M185.6,45.6c-0.1,0.6,0.3,1.1,0.9,1.2c0.5,0.1,1.1-0.3,1.2-0.8c0-0.7-0.3-1-1-1.2
	C186.1,44.7,185.7,45.1,185.6,45.6z"/>
<path class="st15" d="M180.9,27.2c-6.9,0-13.2,3.7-13.3,10.8l0,0v12.3h1.4v-9.8c7.4,2.7,24.1-17,24.1-2.5v12.3h1.4V38
	C194.4,29.9,188,27.2,180.9,27.2z"/>
<path class="st15" d="M170.6,44.6c0,0,0.2,0,0.4-0.3c0.2-0.2,0.3-0.3,0.7-0.7c0.5-0.3,0.9-0.5,1.3-0.8c0.3-0.1,0.6-0.1,0.9-0.2v-0.2
	h1c0.6,0,1.1,0.1,1.7,0.3c0.5,0.1,0.9,0.3,1.4,0.5s0.9,0.5,1.2,0.8l0,0c0.2,0,0.2,0.2,0,0.2H179c0,0-0.5-0.2-1.2-0.3
	c-1-0.3-2-0.4-3.1-0.5h-0.3c0,0-0.3,0-0.3,0.2c-0.2,0-0.5,0-0.7,0.2c-0.5,0.2-0.9,0.3-1.4,0.5c-0.3,0.2-0.5,0.3-0.8,0.3
	c-0.1,0.1-0.2,0.2-0.3,0.2h-0.2L170.6,44.6L170.6,44.6z"/>
<path class="st15" d="M191,44.9c-0.1-0.1-0.2-0.1-0.3-0.2c-0.3-0.2-0.5-0.4-0.8-0.5c-0.5-0.2-0.9-0.5-1.4-0.7
	c-0.2,0-0.3-0.2-0.7-0.2c-0.1-0.1-0.2-0.2-0.3-0.2h-0.3c-1,0-1.9,0.1-2.9,0.3c-0.4,0.1-0.9,0.2-1.3,0.2c-0.2,0.2-0.2,0-0.2,0v-0.2
	l0,0c0.4-0.3,0.8-0.6,1.3-0.7c0.4-0.2,0.9-0.4,1.4-0.5c0.6-0.1,1.1-0.2,1.7-0.2h0.8l0.2,0.2l0,0c0.3,0,0.6,0.1,0.8,0.3
	c0.5,0.3,0.9,0.7,1.2,0.8c0.3,0.3,0.7,0.7,0.8,0.8c0,0.1,0.1,0.3,0.2,0.4v0.2H191V44.9z"/>
<path class="st16" d="M177.3,51.3h3.6v-7.9c-0.3,0-1.2,0-1.2,1.4c-0.1,1.9-0.7,3.8-1.8,5.4C177.5,50.4,177.3,50.8,177.3,51.3z"/>
<path class="st5" d="M184.4,51.3c0,0.3-0.3,0.5-0.7,0.7c-0.8,0.3-1.3,0.3-1.7,0.7c-0.3,0.3-0.7,0.5-1.2,0.5l0,0
	c-0.4,0-0.9-0.2-1.2-0.5s-0.8-0.3-1.7-0.7c-0.3-0.2-0.7-0.3-0.7-0.7H184.4z"/>
<rect x="195.9" y="41.3" class="st2" width="25.9" height="15.3"/>
<rect x="195.9" y="41.3" class="st17" width="25.9" height="7.2"/>
<path class="st18" d="M195.9,58.1c-0.3,0-0.5-0.2-0.5-0.5V40.3c0-0.3,0.2-0.5,0.5-0.5s0.5,0.2,0.5,0.5v17.3
	C196.4,57.9,196.2,58.1,195.9,58.1z"/>
<path class="st18" d="M221.9,58.1c-0.3,0-0.5-0.2-0.5-0.5V40.3c0-0.3,0.2-0.5,0.5-0.5s0.5,0.2,0.5,0.5v17.3
	C222.4,57.9,222.2,58.1,221.9,58.1z"/>
<path class="st4" d="M217.1,57.2c-1.8,1.6-8.5-3.9-9.4-4.6c-2.2-1.4-4.6-1.1-4.8,0.1c2.1,1.9,4.7,5.4,8.6,7.3L217.1,57.2z"/>
<path class="st0" d="M512.7,156.6c0.4,6.4-0.8,8.8-3,14.1c-1.5,3.1-3,3.9-3.3,2.3c-0.7,3.3-3.8,4.9-3.3,2.3
	c-0.5,1.2-1.8,1.8-3.1,1.6c-0.5-0.9,0.4-2.6,0.7-3.3c-1,0.5-2.4-0.6-1.1-3c0.9-1,1.3-2.3,1.2-3.6c-1.8,1.5-3.1,1.6-3.6,0.6
	c1.2-2.4,3-6.3,4.7-9c0.5-0.3,0.8-1,1.3-1.2l2.4-15l7.9,4.4L512.7,156.6z"/>
<path class="st0" d="M429.7,71.3c-1.1-6.7-0.3-9.2,1.6-14.5c1.3-3.5,2.6-3.7,3.1-2.1c0.1-3.4,3.1-4.7,3.1-2.1c0.6-1,1.6-2.4,2.7-1.8
	c0.5,1,0.3,2.1-0.4,3c0.8,0.1,2.3,1.2,1.5,3.7c-0.6,1-0.9,2.1-0.9,3.3c1.4-1.6,3-1.3,3.7-0.4c-1.6,2.4-2.5,6.3-4.1,8.7
	c-0.3,0.7-0.8,1.2-1.4,1.6l-0.5,15.1l-8.3-4.6L429.7,71.3z"/>
<path class="st19" d="M479.9,265.1c-2.5,2.3-1.9,2.3-3.1,4.6h-5c0-1.4-0.6-2.8-4.4-1.8c0,0-2.1-1.2,5.4-3.5S479.9,265.1,479.9,265.1
	z"/>
<path class="st19" d="M487.4,267.9c-3.7-0.9-4.4,0.5-3.7,1.8H478c-0.6-2.3-1-3.2-3.1-4.6c0,0-2.7-1.9,5.4-0.9
	S487.4,267.9,487.4,267.9z"/>
<rect x="479.9" y="156.7" class="st12" width="22.5" height="36.9"/>
<rect x="457.4" y="156.7" class="st12" width="22.5" height="36.9"/>
<polygon class="st20" points="428.6,69 440,70.3 439.9,73.3 428.5,72.1 "/>
<polygon class="st20" points="515.3,149.8 503.3,147.4 502.4,150.3 514.6,153.5 "/>
<rect x="425.1" y="43.6" class="st2" width="25.9" height="15.3"/>
<rect x="425.1" y="43.6" class="st17" width="25.9" height="7.2"/>
<path class="st18" d="M425.1,60.4c-0.3,0-0.5-0.2-0.5-0.5V42.6c0-0.3,0.2-0.5,0.5-0.5s0.5,0.2,0.5,0.5v17.3
	C425.6,60.2,425.4,60.4,425.1,60.4z"/>
<path class="st18" d="M451.1,60.4c-0.3,0-0.5-0.2-0.5-0.5V42.6c0-0.3,0.2-0.5,0.5-0.5s0.5,0.2,0.5,0.5v17.3
	C451.6,60.2,451.4,60.4,451.1,60.4z"/>
<path class="st0" d="M444,61c1.1-2.7,2.3-5.3,3.8-7.8c-0.3-1-1.4-1.5-2.4-1.1c-0.3,0.1-0.6,0.3-0.9,0.6c-2.1,2-5.1,7.6-5.1,7.6
	S443.2,63.1,444,61z"/>
<path class="st21" d="M470,44.6c2.2,2.6,9.5,15.4,9.5,15.4c0.3,3,0.3,6-0.1,9.1l12.2,1.7c3.1-3.4,6-8.3,7.7-15.6
	c4.4-19.1-10.9-25.9-16.1-27.1c-7.3-1.7-14.8,1-15.9,6S466.5,40.6,470,44.6z"/>
<path class="st0" d="M469.1,55.6l15.8-1.2l1.7,20.5l0,0l0,0c0.3,3.3-3.1,7.3-7.4,7.7s-8.1-3.1-8.4-6.5l0,0l0,0L469.1,55.6z"/>
<path class="st1" d="M470.4,71.7l-1.5-19l15.8-1.2l0.9,10.9C484.1,67,478.6,71.1,470.4,71.7z"/>
<path class="st0" d="M468.9,36.3c-1.3,2.7-2.3,5.5-3.2,8.4c-0.8,2.2-2.4,4-4.5,5.1c-1.7,0.8-0.2,1.9,0.7,2.1s1.1,0.7,0.9,1.9
	l-1.6,6.7c-0.5,2-0.2,4.3,3.8,5.2c5.3,1.2,12,1.2,16-1.7c2.3-1.6,3.8-4.2,4.1-7c0,0,3.4,0.3,4.2-4c0.9-4.8-4.9-5.8-7.8-4.6
	C478.1,47.3,470.1,42.3,468.9,36.3z"/>
<ellipse transform="matrix(0.2263 -0.9741 0.9741 0.2263 316.584 494.653)" cx="469.7" cy="48" rx="1.2" ry="1.2"/>
<path class="st1" d="M467.8,38.7L467.8,38.7c0.7-1.5,1.1-2.5,1.1-2.5c1.2,6.1,9.1,11.1,12.7,12.2C479.1,49.2,470.7,46.7,467.8,38.7z
	"/>
<path class="st21" d="M485.2,57.1c-0.4,6.4-5.2,12-5.2,12l11,1.5l1-11.7L485.2,57.1z"/>
<path class="st22" d="M468.3,57c-2,0.8-4.2,1-6.3,0.5l-0.3,1.2c0.5,0.3,1,0.5,1.6,0.5C465.2,59.3,467,58.5,468.3,57z"/>
<path class="st23" d="M469.2,57.8c-2.4-0.1-4.7-0.8-6.8-2l-0.4,1.8h0.1C464.4,58.4,466.9,58.5,469.2,57.8z"/>
<path class="st24" d="M470.4,77.2h-10.5c-4,0-5.5,1.3-10,4.6c-5.4,4.1-11.3,9.2-11.3,9.2l1.3-18.8l-12.1-1.1c0,0-2.4,25.1-2.8,30.6
	s5.1,11.2,11.7,7.6l17-9.2l6.5,24.9l-4.7,31.7h28.6L470.4,77.2z"/>
<path class="st24" d="M487,77.2h11c4.1,0,9,1.2,11.5,8.7l10.1,29.3c0.5,1.5,1.1,3.2,0.5,7.2l-4.7,28.1l-12.1-1.8l3.1-28l-4.2-8.3
	L500,125l6.3,31.7h-28.4L487,77.2z"/>
<polygon class="st25" points="486.7,77.2 490.9,77.2 495.3,81.7 492.3,85.9 495.3,89.1 480.4,134.9 "/>
<polygon class="st25" points="470.9,77.2 465.9,77.2 462.4,81.7 465.3,85.9 462.4,89.1 480.4,134.9 "/>
<polygon class="st23" points="468.9,78.6 470.4,73.6 480.3,83.6 473.6,89.2 "/>
<polygon class="st23" points="487.5,78.5 486.2,73.3 478.6,83.6 485.4,89.2 "/>
<path class="st26" d="M479.3,258.2l0.6,5.2c0,1-0.6,1.6-2.9,2.1l-12.6,3.1c-2.6,0.6-5.3,1-8,1h-7.5c-4,0-2.3-2.1-1.7-2.1
	c2.9-1,9.7-2.6,14.9-5.2C466.7,260.3,479.3,258.2,479.3,258.2z"/>
<path class="st0" d="M478,253.6c0,1.6,1.2,3.3,1.9,4.4c0,1.6-21.2,6.6-21.2,6.6c-1.9,0.3-2.9,0.4-1.8-0.1c4.6-2.3,13.1-7.6,13.1-9.8
	L478,253.6z"/>
<path class="st27" d="M476,258.2l-1.1,5.2c0,1,1.1,1.6,2.9,2.1l12.6,3.1c2.8,0.6,5.7,1,8.6,1h6.9c4,0,2.9-2.1,1.7-2.1
	c-2.9-1-9.2-2.6-14.9-5.2C488.1,260.3,476,258.2,476,258.2z"/>
<path class="st0" d="M476.8,253.6c0,1.6-1.2,3.3-1.2,4.4c-0.6,1.6,21.2,6.6,21.2,6.6c1.1,0.3,2.5,0.7,1.9,0.1
	c-5-2.2-13.8-7.8-13.8-10L476.8,253.6z"/>
<line class="st28" x1="172.4" y1="56.7" x2="189.3" y2="56.7"/>
<path class="st29" d="M175,55.8c0.8,2.5,3.2,4.2,5.9,4.2c2.6,0,4.8-1.7,5.7-4.2c-0.8,0.6-2.2,1.4-4,1.8c-0.6,0.1-1.4,0.3-2.3,0.3
	C177.7,58,175.9,56.6,175,55.8z"/>
</svg>
