<?xml version="1.0" encoding="utf-8"?>
<!-- Generator: Adobe Illustrator 21.1.0, SVG Export Plug-In . SVG Version: 6.00 Build 0)  -->
<svg version="1.1" id="Слой_1" xmlns="http://www.w3.org/2000/svg" xmlns:xlink="http://www.w3.org/1999/xlink" x="0px" y="0px"
	 viewBox="0 0 250 100" style="enable-background:new 0 0 250 100;" xml:space="preserve">
<style type="text/css">
	.st0{fill:url(#SVGID_1_);}
	.st1{fill:url(#SVGID_2_);stroke:#000000;stroke-miterlimit:10;}
	.st2{fill:url(#SVGID_3_);stroke:#000000;stroke-miterlimit:10;}
	.st3{fill:url(#SVGID_4_);}
	.st4{fill:url(#SVGID_5_);stroke:#000000;stroke-miterlimit:10;}
	.st5{fill:url(#SVGID_6_);stroke:#000000;stroke-miterlimit:10;}
	.st6{fill:url(#SVGID_7_);}
</style>
<g>
	<g>
		
			<radialGradient id="SVGID_1_" cx="125.4809" cy="76.9811" r="70.2025" fx="128.2631" fy="41.931" gradientTransform="matrix(1 0 0 -1 0 150)" gradientUnits="userSpaceOnUse">
			<stop  offset="0.355" style="stop-color:#00CCFF"/>
			<stop  offset="1" style="stop-color:#000030"/>
		</radialGradient>
		<path class="st0" d="M176,52.1c-0.3-3.3-0.1-6.5-0.2-9.7c-0.7-3.2-1.5-6.3-2.3-9.5c-1.4-2.9-2.8-5.9-4-8.9
			c-0.3,0.1-0.3,0.1-0.1-0.1c-2.2-2.4-4.3-4.7-6-7.4c1.9,3.2,3.9,6.1,6.2,8.9c1.1,3.4,2.5,6.7,4.1,9.9c-1.4-2.8-2.7-5.6-3.8-8.5
			c-1.8-2.6-3.4-5.3-4.9-8c-2.4-2-4.8-4.2-6.9-6.5c-2.7-1.7-5.3-3.7-7.8-5.8c-2.8-0.3-5.2-1.3-7.3-3.2c0.1,1.2,0.6,1.3,1.4,0.5
			c-2.7-0.3-5.3-0.9-7.8-1.9c-2.7-0.2-5.3-0.7-7.9-1.4c-2.6,0.4-5.3,0.6-8,0.6c-2.6,0.6-5.3,1-8,1.4c-2.5,1.1-5,2.2-7.7,3.3
			c-2.5,1.5-5,2.9-7.6,4.5c-2.3,2.3-4.7,4.4-7.1,6.5c-1.9,2.5-3.7,5-5.6,7.4c-0.9,3.5-2.9,6.7-4.6,9.8c-0.6,2.1-1.2,4.1-1.7,6.2
			c-0.4,2.1-0.7,4.2-0.9,6.4c-0.2,3.3-0.1,6.5,0.3,9.6s1.1,6.2,2.1,9.1c6,17.6,21.9,31.1,40.6,33.3c3.5,0.3,6.9,0.3,10.3-0.1
			s6.6-1.1,9.7-2.1c3.1-1,6.1-2.4,9-3.9c2.8-1.6,5.5-3.5,8.1-5.6c2.4-2.3,4.6-4.8,6.8-7.4c1.9-2.8,3.8-5.7,5.6-8.7
			c1.1-3.3,2-6.5,3.1-9.6c0.4-3.3,0.9-6.5,1.7-9.6c-0.8-3.2-1.3-6.4-1.2-9.6c-1.2-3-1.8-6.1-1.9-9.4c-2.3-2.5-4.1-5.1-5-8.3
			c-2.5-2.2-4.2-4.9-5.3-8.1c-3.2-1.3-5.9-3-7.9-5.7c-3.2-1-5.8-2.9-8.1-5.5c-3.4,0.1-6.7-0.5-9.7-2.1c-3.4,0.3-6.8-0.3-10.2-1.6
			c-2.7,1.5-5.4,2.3-8.4,1.9c-2.5,1.6-5.3,2-8.3,1.8c-2,2.4-4.2,4-7.1,4.7c-1.8,2.3-4.3,3.7-7.2,4.6c-1.1,2.8-2.7,5-5.1,6.8
			c-1,2.7-2.8,4.9-5.1,6.8c-0.4,2.9-1.2,5.6-2.6,8.1c-0.3,2.9-1.1,5.6-2.2,8.5c0.4,3.1,0.5,6.1,0.3,9.1c0.6,2.9,1,5.8,1.2,8.8
			c1.2,2.6,2.4,5.3,3.4,8c1.5,2.5,2.9,5,4.3,7.5c2,2.1,4,4.2,6,6.3c2.3,1.8,4.5,3.7,6.8,5.5c2.7,1.3,5.4,2.5,8.1,3.8
			c2.9,0.9,5.9,1.8,8.9,2.7c3.2,0.1,6.4,0.2,9.5,0.3c3.1-0.4,6.2-0.7,9.2-0.9c2.8-1.3,5.6-2.5,8.6-3.4c2.6-1.7,5.3-3.1,8.2-4.3
			c1.9-2.6,4-5,6.7-6.8c1.6-2.9,3.8-5.3,6.5-7.5c0.8-4,1.9-7.7,3.9-11c0-4,1-7.5,2.8-11c-1.8-3.7-2.7-7.3-2-11.1
			c-2.3-3.3-2.8-7-2.3-11c-3.6-2.2-6.2-4.9-7.1-8.9c-3.8-1.8-5.9-4.8-7.2-8.9c-4.4-0.2-8-1.4-10.8-4.6c-4.3,0.3-7.9-1.5-11.4-4.5
			c-3.1,2.2-6,2.9-9.1,1.2c-2.8,2.2-5.7,1.8-9,0c-2,3.2-4.3,4.9-7.7,4.4c-1.7,3-4.5,3.7-8.3,3.3c-0.7,3.6-2.4,6-5.7,6.9
			c-0.7,3.3-3.1,5.1-6.5,6.4c3-0.9,4.9-2.4,5.2-5.2c2.8-0.8,3.9-2.9,4.2-6c3.2,0.2,5.4-0.7,6.6-3.3c2.9,0.1,4.6-1.6,5.9-4.5
			c3,1.1,5.4,1,7.4-1.2c2.7,1,5-0.1,7.2-2.4c3.1,2.1,6,2.9,9.1,1.5c2.7,2.1,5.7,2,9.1,0.7c1.9,3.1,4.3,4.9,7.7,4.8
			c1.7,2.9,4.5,3.9,8.1,4c0.8,3.4,2.4,5.8,5.4,7.1c0.7,3.2,2.8,5.2,5.9,6.7c-0.2,3.3,0.5,6.1,2.6,8.6c-0.2,3.2,0.9,6,2.8,8.9
			c-1.2,2.6-1.5,5.2-0.7,7.8c-1.1,2.5-1,5-0.2,7.7c-1.6,2.1-2.5,4.4-2.8,7c-1.5,2-2.3,4.4-2.7,7c-1.9,1.7-3.4,3.6-4.6,5.8
			c-1.9,1.6-3.5,3.6-4.9,5.7c-2.9,1.9-5.7,3.8-8.4,5.7c-3,1.4-6,2.8-8.9,4.2c-3.2,0.7-6.4,1.3-9.6,1.7c-3.2,0.1-6.5,0.2-9.8,0.1
			c-3.2-0.6-6.4-1.3-9.7-2.2c-3.1-1.1-6.3-2.4-9.4-3.9c-2.6-1.8-5-3.7-7.4-5.7c-2.2-2.2-4.3-4.4-6.3-6.7c-1.6-2.6-3.1-5.2-4.6-7.9
			c-1.2-2.8-2.3-5.6-3.5-8.4c-0.5-3-0.9-6.1-1.4-9.1c0-3.1-0.1-6.3-0.2-9.5c0.9-3.5,1.9-6.8,2.8-10.1c1.5-3.1,2.9-6.2,4.2-9.3
			c2.5-2.4,4.8-4.8,6.7-7.6c2.8-2,5.2-4.3,7.4-6.9c3.4-0.9,6.5-2.2,9.4-4.2c3.5-0.5,6.6-1.7,9.7-3.5c3.5,0.6,6.9,0.7,10.4,0.1
			c3.4,1,6.9,1.1,10.6,1c2.9,1.9,5.8,3.4,9.1,4.3c2.6,2.2,5.5,3.8,8.7,5.1c1.9,2.8,4,5.4,6.6,7.6c1.6,3,3.6,5.6,5.8,8.2
			c0.9,3.2,1.9,6.4,3.1,9.5c0.5,3.3,1.2,6.6,1.8,9.9c-0.3,3.3-0.6,6.6-0.8,9.9c-0.7,3.2-1.4,6.3-2.2,9.3c-1.2,2.9-2.5,5.7-4,8.5
			c-1.6,2.7-3.4,5.2-5.4,7.6c-2.1,2.4-4.4,4.5-6.9,6.5s-5.3,3.7-8.3,5.2c-5.8,2.6-11.8,4.1-17.9,4.5c0.6,0,1.1,0.1,1.7,0.2
			c1.9-0.2,3.7-0.6,5.6-1c0.6-0.3,1.3-0.5,2-0.5c8.7-2.4,16.8-6.9,23.3-13.3c0.4-0.5,0.8-1,1.3-1.5c0.4-0.5,0.9-0.9,1.4-1.3
			c0.6-0.7,1.1-1.3,1.7-2l-3,3c1.6-1.7,3-3.5,4.2-5.4s2.3-3.8,3.3-5.8c-1.4,3.2-3,6.3-5,9.1c1-0.9,1.9-1.8,2.5-3.1
			c1.2-2.4,2.5-5,3.7-7.6s2.2-5.3,2.8-7.9C176.2,58.5,175.8,55.3,176,52.1z M83.7,67.8c0.3-2.8-0.4-5.1-2.3-7.1
			c1.8,2.4,3.1,5,3.7,7.9c1.9,2.3,3.1,4.9,4,7.9c2.5,1.7,4.6,3.7,6.2,6.2c2.5,1.5,4.5,3.6,6.4,5.8c2.8,0.8,5.4,2,7.8,3.5
			c2.8,0.5,5.5,1.5,8.1,2.8c0.3-1.6-2.6-1.6-2.9-0.4c-2-1.3-4.1-2.3-6.4-2.7c-1.9-1.4-4-2.2-6.3-2.8c-1.5-1.8-3.3-3.3-5.3-4.4
			c-1.5-1.8-3.2-3.3-5.3-4.6c-1-2.2-2.2-4.2-3.8-5.9C86.6,71.7,85.3,69.7,83.7,67.8z M142.2,93.6c-2.3-0.1-4.3,0.2-6.3,1.2
			c-2.2-0.1-4.2,0.4-6.2,1.3c-4.2-1-8.3-1.3-12.5-1c3.3-0.1,6.6-0.1,9.8,0.4c3.2-0.7,6.5-0.8,9.8-0.6c2.9-1.8,5.8-3.2,9.1-3.8
			c2.6-2.1,5.6-3.5,8.8-4.3c1.7-3,3.8-5.5,6.7-7.2c1.4-3.1,3.6-5.5,6.4-7.4c0-3.6,0.7-6.8,2.9-9.6c-0.4-3.6,0.6-6.8,2.9-10
			c-2.2,2.8-3.2,5.6-2.6,8.9c-2.1,2.5-2.5,5.4-2.3,8.8c-2.6,1.8-4.6,4-5.5,7c-2.6,1.7-4.3,4.1-5.6,7.1c-3,0.9-5.6,2.4-7.7,4.7
			C147.1,90,144.6,91.6,142.2,93.6z M159.7,15.4c-0.3,4.4,0.7,7.3,4.5,8.2c-0.5,3.9,1.8,5.8,5.8,6.9c-1.8,3.6-1.9,6.4,1.1,8.6
			c-1.7,3.2-0.3,5.7,2.7,8.2c-2.6,2.7-3.5,5.3-1.9,8.4c-2.3,2.5-2.1,5.4-0.7,8.8c-2.7,1.4-4.2,3.2-3.9,5.9c-2.3,1.3-2.9,3.5-2.6,6.3
			c-2.7,0.6-4.4,1.9-5,4.3c-2.4,0.6-3.6,2.4-4.3,5c-2.6-0.1-4.6,0.7-6,2.8c-2.4,0.1-4.2,1.4-5.7,3.7c-3.8,0.1-7.3,0.7-10.6,2.1
			c-3.6-0.3-7,0.1-10.4,0.9c-3.2-1.4-6.5-2.4-10-2.7c-3-1.8-6.2-2.9-9.6-3.7c-2.3-2.6-4.9-4.9-7.9-6.8c-2-2.9-4.4-5.3-7.2-7.5
			c-0.9-3.5-2.2-6.7-4.2-9.7c-0.4-3.6-1.6-7-3.2-10.5c2.1-2.8,2.1-5.3-0.3-7.8c1.4,3,2,6,1.4,9.1c1.5,2.8,1.8,5.8,1.5,9
			c2.3,2.3,3.9,4.8,4.7,7.8c2.3,2.1,3.8,4.7,4.9,7.7c2.9,1.3,5.5,3,7.4,5.5c3.1,1,5.5,2.9,7.8,5.4c3.2-0.1,6.2,0.4,8.8,2
			c3.1-0.4,5.9,0.4,8.7,2c2.9-1.5,5.7-2.1,8.8-1.5c2.7-1.6,5.6-1.9,8.9-1.3c2.1-2.7,4.5-4.5,7.8-5c1.9-2.8,4.6-4.2,8.2-4.9
			c1.1-4,2.8-7.3,6.1-9.4c0.5-4.1,2.6-7,6-9.5c-1.5-4.2-1.8-7.9,0.7-11.4c-2-3.9-1.3-7.5,1.1-11.4c-3.8-2.9-5.9-6-5-10.5
			c-4-2.3-5-6-4.6-10.9c-4.7,0.1-7.7-1-8.2-5.3c-4.4,0.5-6.1-2.1-6.8-6.8c-4.3,2.4-7.5,2.7-9.6-1.4c-3.8,2.5-6.4,0.6-8.9-3.7
			c-3,3.9-5.8,5.3-9.3,2.5c-2.5,3.6-5.6,3-9.6,0.3c3.7,2.7,6.5,3.3,8.7-0.2c3.2,2.6,5.7,1.1,8.2-2.7c2.4,3.8,4.9,5.3,8.2,2.8
			c2.1,3.5,5,3,8.7,0.5c1,4.2,2.9,6.4,6.8,5.6C152.4,15.1,155.3,15.9,159.7,15.4z M96.8,13.7c0.8,3.9,0.2,6.1-3.2,5.9
			c0.8,3.4-1.4,4.3-5.3,4.1c1.9,3.5,1.9,5.8-1.5,6.6c1.6,3-0.2,4.5-4,5.5c1.9,4.2,2.2,7.8-0.2,11.3c2.1,3.6,1.5,7.1-0.6,10.9
			c3.3,2.6,5.2,5.5,4.8,9.6c3.4,2.2,4.4,5.6,4.4,9.8c4.1,0.9,7.1,2.8,8.6,6.5c3.9,0.6,6.4,3.2,8.5,6.8c3.7-0.9,6.8-0.7,9.4,1.7
			c3.4-1.2,6.2-0.1,9,2.3c2.9-2.6,5.7-3.8,9-2.4c2.5-2.7,5.5-2.8,9.2-1.2c1.4-4,3.5-6.3,7.4-6c1.1-3.9,4-5,8.3-4.8
			c-0.6-4.5,0.3-7.7,4.4-8.9c-0.9-4.3,1.5-6.6,6-8.2c-2.8-3.6-3.6-6.4-0.1-8.5c-2.8-3.1-1.4-5.5,2.5-7.9c-4.2-2.2-6-4.5-3.2-7.7
			c-4-1.8-3.4-4.6-0.3-8.3c-6.1,4.3-5.5,5.8,1.9,5.5c-2.9,4.6-3.7,8.5-0.5,12.3c-3.2,3.8-2.3,7.5,0.5,11.8c-4.4,2.3-6.8,5.1-6.1,9.7
			c-4.2,1.8-5.4,5.3-5.2,10.2c-4.6,0.2-7.9,1.7-9.7,5.8c-4.3-0.1-7,2.4-9.4,6.3c-4-1.4-7.7-1.4-11.4,0.8c-3.9-1.6-7.7-1-11.9,0.7
			c-3.2-2.9-6.5-4.8-10.6-4.9c-2.6-3.1-6-4.5-10.1-5c-1.1-4-3-7.1-6.5-9c-0.6-4-3-6.7-6.5-8.9c1.1-4.1,1-7.8-1.5-11.1
			c1.5-3.9,0.6-7.5-1.7-11.3c3.2-2.5,4.7-5.1,3.3-8.4c3.1-2,3.2-4.8,1.8-8.5c4-0.8,6.4-2.3,6.1-6C96.1,20.5,97.2,17.9,96.8,13.7z
			 M118.2,2.3c-2.2,2.3-4.5,3.6-7.4,3.2c-1.9,2.2-4.5,2.7-7.5,2.4c-1.2,2.7-2.9,4.5-5.6,5.1c-1.1,2.5-3.2,3.8-6,4.5
			c-0.4,2.8-1.5,4.9-3.7,6.4c-0.4,2.6-1.9,4.5-4.2,6.1c2.9-1.2,3.9-3.3,3.2-6.3c3-0.8,4.4-2.7,4.2-5.8c3.4-1.6,6.2-3.6,8.2-6.4
			c3.3-1.1,5.9-3.1,8.1-5.9c3.6,0.2,6.7-0.3,9.6-2.2c3.4,0.5,6.5-0.3,9.6-2.1c3.2,1.8,6.4,2.7,10,2.1c3,2,6.5,2.5,10.4,2.3
			c1.8,4.1,4.6,5.8,9,5.5c-3.5-0.4-6.4-1.5-8.7-4.1c-3.4-0.1-6.1-1.7-8.7-4.3c-3.4,1.1-6.7,1.2-10-0.3
			C125.3,3.9,121.9,3.5,118.2,2.3z M172.3,64.1c-2.1,2.5-3.1,5.4-3.7,8.7c-2.5,2.9-4.6,5.9-6.5,9c-2.8,2.3-5.4,4.6-8,7
			c1.9-1.8,3.8-3.7,5.8-5.3c1.6-2.1,3.4-3.9,5.3-5.7c1-2.5,2.1-4.7,3.7-6.8C169.7,68.5,170.8,66.2,172.3,64.1z M106.8,93.3
			c2.6,1.1,5.2,1.9,7.9,2.7c2.7,0.6,5.4,1.1,8.1,1.4c-0.6-0.1-1.3-0.1-1.9-0.1c-3.1-0.3-6.2-0.9-9.1-1.8s-5.7-2.1-8.4-3.6
			c-2.6-1.5-5.1-3.2-7.4-5.2s-4.4-4.2-6.4-6.5c2.3,2.7,4.8,5.2,7.7,7.5C100.1,89.9,103.3,91.8,106.8,93.3z M88.3,19.9
			c-1.7,2.9-3.4,5.7-5,8.6c-1.2,3-2.4,6-3.4,9c-0.5,3.1-0.9,6.2-1.2,9.3c0,3.1,0,6.2,0.3,9.3c0.6,3,1.3,6.1,2.2,9
			c1,2.9,2.3,5.8,3.7,8.5c-1.1-2.1-2.1-4.2-3-6.4c-0.8-2.2-1.6-4.4-2.2-6.7c-0.4-2.3-0.8-4.7-1.1-7c-0.1-2.4-0.2-4.8-0.2-7.2
			c0.4-2.3,0.7-4.6,1-6.9c0.6-2.2,1.1-4.4,1.6-6.6c1-2,1.9-4,2.8-6.1c1.2-1.9,2.3-3.8,3.4-5.8c1.6-1.6,3.2-3.3,4.7-5.2
			c1.9-1.5,3.6-3.2,5.3-5.1c1.6-0.1,2.6-0.8,3.2-2.2c-1.7,2.2-3.9,3.9-6.5,5.1C92.5,16,90.6,18.1,88.3,19.9z"/>
		<g>
			<g>
				
					<linearGradient id="SVGID_2_" gradientUnits="userSpaceOnUse" x1="5.2237" y1="103.6" x2="289.5885" y2="103.6" gradientTransform="matrix(1 0 0 -1 0 150)">
					<stop  offset="0.355" style="stop-color:#00CCFF"/>
					<stop  offset="1" style="stop-color:#000030"/>
				</linearGradient>
				<path class="st1" d="M21.1,47.4V56v5c0,3.1,0,5.4,0.1,6.8c3.4,0.3,7.1,0.4,11,0.4c2.6,0,4.8-0.1,6.6-0.4
					c1.2-0.1,2.4-0.4,3.7-0.9c0.6-2.1,1.2-4.6,1.8-7.7h2.3c-0.6,5.1-0.9,8.6-0.9,10.3l0.1,1.6c-2.7,0.2-5.3,0.4-7.9,0.4l-5.5-0.1
					c-6.1-0.2-10.6-0.2-13.4-0.2c-2.7,0-6.4,0.1-10.9,0.2v-2.2h1c2,0,3.3-0.2,3.8-0.6s0.9-1.3,1.1-2.8s0.3-4.7,0.3-9.8V36.6
					c0-3.2-0.1-5.8-0.2-7.8c-0.2-2-0.3-3.2-0.5-3.6s-0.5-0.6-0.8-0.8c-0.3-0.2-1.3-0.4-3-0.6l-2.7-0.3v-2.2h3.8l3.7,0.1
					c2.1,0.1,3.7,0.1,4.7,0.1l13.5-0.2h6.4c2.2,0,4.4,0.1,6.6,0.2c-0.9,2.8-1.4,6.4-1.5,10.9h-2.4c0-2.6-0.1-4.7-0.4-6.4
					c-2.8-1-6.2-1.5-10.2-1.5c-3.2,0-6.6,0.1-10.1,0.4c0,2.2,0,4.4-0.1,6.6v5.4V44c2.3,0.2,4.4,0.2,6.2,0.2c5.6,0,8.7-0.2,9.5-0.6
					s1.1-1.6,1.1-3.6v-2.3h2.4c-0.2,3.5-0.2,6.4-0.2,8.5c0,2.2,0.1,4.9,0.2,7.9h-2.4v-2c0-2.3-0.4-3.6-1.3-4.1
					c-0.9-0.5-4-0.8-9.3-0.8C25.3,47.2,23.2,47.3,21.1,47.4z"/>
				
					<linearGradient id="SVGID_3_" gradientUnits="userSpaceOnUse" x1="7.4237" y1="103.6" x2="291.7885" y2="103.6" gradientTransform="matrix(1 0 0 -1 0 150)">
					<stop  offset="0.355" style="stop-color:#00CCFF"/>
					<stop  offset="1" style="stop-color:#000030"/>
				</linearGradient>
				<path class="st2" d="M96.6,34.1l-0.3-6.3c-2.1-1.4-4.3-2.4-6.6-3.1s-4.7-1-7.2-1c-6.3,0-11.4,1.9-15.2,5.8
					c-3.8,3.8-5.7,9-5.7,15.4c0,4.5,1,8.6,2.9,12.1c1.9,3.5,4.7,6.3,8.2,8.4c3.6,2.1,7.3,3.1,11.3,3.1c3.1,0,6.2-0.4,9.3-1.1
					c2.3-0.5,4.6-1.7,6.9-3.4l0.7,0.7c-0.5,1.1-0.9,2.2-1.4,3.3c-2.7,1.4-5.5,2.4-8.3,3.1s-5.6,1-8.4,1C77,72.1,72,71,67.6,68.8
					s-7.7-5.3-10.1-9.2c-2.3-3.9-3.5-8.4-3.5-13.3s1.2-9.4,3.6-13.3c2.4-3.9,5.7-6.9,10-9.1s9.6-3.2,15.9-3.2
					c3.3,0,7.2,0.5,11.6,1.6c2.2,0.5,4,0.9,5.4,1.2c-1.1,2.5-1.7,6-1.8,10.6C98.7,34,96.6,34,96.6,34.1z"/>
				
					<linearGradient id="SVGID_4_" gradientUnits="userSpaceOnUse" x1="3.4737" y1="99.85" x2="287.8385" y2="99.85" gradientTransform="matrix(1 0 0 -1 0 150)">
					<stop  offset="0.355" style="stop-color:#00CCFF"/>
					<stop  offset="1" style="stop-color:#000030"/>
				</linearGradient>
				<path class="st3" d="M100,50.1c0-7.7,2.5-13.9,7.5-18.6s11.6-7.1,19.9-7.1c8.1,0,14.5,2.2,19.1,6.6s6.9,10.2,6.9,17.4
					c0,7.8-2.7,14.3-8,19.6s-12.1,7.9-20.2,7.9c-5.1,0-9.5-1-13.2-3.1s-6.6-5.1-8.7-9C101.1,59.7,100,55.2,100,50.1z M107.2,47.2
					c0,5.3,0.9,9.9,2.7,13.8c1.8,3.9,4.3,6.9,7.3,8.8c3,2,6.5,2.9,10.5,2.9c3.6,0,6.8-0.8,9.5-2.5s4.9-4.1,6.4-7.5
					c1.6-3.3,2.3-7.3,2.3-12.1c0-5-0.9-9.2-2.6-12.7c-1.7-3.5-4.1-6.2-7.1-8s-6.6-2.7-10.7-2.7c-3.8,0-7,0.8-9.7,2.4
					s-4.9,3.9-6.4,6.9C107.9,39.7,107.2,43.2,107.2,47.2z"/>
				
					<linearGradient id="SVGID_5_" gradientUnits="userSpaceOnUse" x1="3.4737" y1="103.6" x2="287.8385" y2="103.6" gradientTransform="matrix(1 0 0 -1 0 150)">
					<stop  offset="0.355" style="stop-color:#00CCFF"/>
					<stop  offset="1" style="stop-color:#000030"/>
				</linearGradient>
				<path class="st4" d="M182.7,46c2.3,3.3,5.1,7.1,8.5,11.5l6.8,8.8c1.2,1.5,2,2.4,2.4,2.6s0.8,0.3,1.2,0.3h0.9v2.2
					c-1.9-0.2-3.6-0.2-5.1-0.2c-1.3,0-2.7,0.1-4.2,0.2l-12.4-16.8c-2.3-3.1-4.8-6.1-7.5-9.1l0.4-1.2c1.4,0.1,2.4,0.2,3,0.2
					c3.9,0,7-1,9.2-3s3.3-4.7,3.3-8.1c0-3-0.9-5.4-2.8-7.1c-1.9-1.7-4.6-2.5-8.1-2.5c-2.5,0-4.9,0.5-7.4,1.4
					c-0.3,3.7-0.4,7.7-0.4,12v17c0,8.3,0.2,12.9,0.6,13.8c0.4,0.9,1.7,1.4,3.9,1.4h2.7v2.2c-3.9-0.2-7.1-0.2-9.7-0.2
					c-2,0-5.7,0.1-10.9,0.2v-2.2h2.6c2,0,3.2-0.4,3.6-1.3c0.4-0.9,0.6-5.5,0.6-13.9V37.1c0-7.3-0.2-11.3-0.7-12.2
					c-0.4-0.9-1.8-1.3-4.2-1.3h-1.9v-2.2c4.4,0.2,7.7,0.2,10,0.2c1.5,0,3.8-0.1,6.7-0.2c3.4-0.1,5.8-0.2,7.3-0.2
					c4.1,0,7.1,0.4,9.2,1.3c2.1,0.9,3.7,2.1,4.8,3.7s1.6,3.6,1.6,5.8c0,3.3-1.2,6.2-3.6,8.8S187.3,45.1,182.7,46z"/>
				
					<linearGradient id="SVGID_6_" gradientUnits="userSpaceOnUse" x1="4.4737" y1="103.65" x2="288.8385" y2="103.65" gradientTransform="matrix(1 0 0 -1 0 150)">
					<stop  offset="0.355" style="stop-color:#00CCFF"/>
					<stop  offset="1" style="stop-color:#000030"/>
				</linearGradient>
				<path class="st5" d="M220.1,47.4V56v5c0,3.1,0,5.4,0.1,6.8c3.4,0.3,7.1,0.4,11,0.4c2.6,0,4.8-0.1,6.6-0.4
					c1.1-0.1,2.4-0.4,3.7-0.9c0.6-2.1,1.2-4.6,1.8-7.7h2.3c-0.6,5.1-0.9,8.6-0.9,10.3l0.1,1.6c-2.7,0.2-5.3,0.4-7.9,0.4l-5.5-0.1
					c-6.1-0.2-10.6-0.2-13.4-0.2c-2.7,0-6.4,0.1-10.9,0.2v-2.2h1.1c2,0,3.3-0.2,3.8-0.6s0.9-1.3,1.1-2.8s0.3-4.7,0.3-9.8V36.6
					c0-3.2-0.1-5.8-0.2-7.8c-0.2-2-0.3-3.2-0.5-3.6s-0.4-0.7-0.8-0.9c-0.4-0.2-1.3-0.4-3-0.6l-2.7-0.3v-2.2h3.8l3.7,0.1
					c2.1,0.1,3.7,0.1,4.7,0.1l13.5-0.2h6.4c2.2,0,4.4,0.1,6.6,0.2c-0.9,2.8-1.4,6.4-1.5,10.9H241c0-2.6-0.1-4.7-0.4-6.4
					c-2.8-1-6.2-1.5-10.2-1.5c-3.2,0-6.6,0.1-10.1,0.4c0,2.2,0,4.4-0.1,6.6l-0.1,5.4v7.1c2.3,0.2,4.4,0.2,6.2,0.2
					c5.6,0,8.7-0.2,9.5-0.6s1.1-1.6,1.1-3.6v-2.3h2.4c-0.2,3.5-0.2,6.4-0.2,8.5c0,2.2,0.1,4.9,0.2,7.9H237v-2c0-2.3-0.4-3.6-1.3-4.1
					c-0.9-0.5-4-0.8-9.3-0.8C224.2,47.2,222.2,47.3,220.1,47.4z"/>
			</g>
		</g>
	</g>
</g>
<radialGradient id="SVGID_7_" cx="121.5793" cy="45.8552" r="23.2984" fx="119.6678" fy="41.7081" gradientUnits="userSpaceOnUse">
	<stop  offset="0.2387" style="stop-color:#E90600"/>
	<stop  offset="0.3121" style="stop-color:#E30601"/>
	<stop  offset="0.4138" style="stop-color:#D10505"/>
	<stop  offset="0.5322" style="stop-color:#B3050B"/>
	<stop  offset="0.663" style="stop-color:#8A0414"/>
	<stop  offset="0.8041" style="stop-color:#56021E"/>
	<stop  offset="0.9517" style="stop-color:#16012B"/>
	<stop  offset="1" style="stop-color:#000030"/>
</radialGradient>
<path class="st6" d="M131.7,39.1c-2,0-3.8,0.9-5,2.4c-1.2-1.5-3-2.4-5-2.4c-3.3,0-6.1,2.7-6.2,6c-0.3,7.8,10.6,17.3,11.6,16
	c1,1.3,11.2-8.2,10.9-16C137.8,41.8,135,39.1,131.7,39.1z"/>
</svg>
